Coordinates
version=1
nRows=29
nColumns=24
inDegrees=yes

Units are S.I. units (second, meters, Newtons, ...)
Angles are in degrees.

endheader
time	pelvis_tilt	pelvis_list	pelvis_rotation	pelvis_tx	pelvis_ty	pelvis_tz	hip_flexion_r	hip_adduction_r	hip_rotation_r	knee_angle_r	ankle_angle_r	subtalar_angle_r	mtp_angle_r	hip_flexion_l	hip_adduction_l	hip_rotation_l	knee_angle_l	ankle_angle_l	subtalar_angle_l	mtp_angle_l	lumbar_extension	lumbar_bending	lumbar_rotation
      0.57066667	     -1.40741891	      0.00637813	      2.57596471	     -0.51761542	      1.06586130	      0.30805089	     14.34402101	      2.92831859	     -1.91959554	    -21.31135173	     10.72682146	     -4.98403293	      2.97979103	     19.96108021	     -5.30745574	     -5.51970147	    -72.29034140	      6.83952171	      2.69558351	      1.08859409	     -9.91624188	      3.78909532	      1.04354177
      0.57483333	     -1.37833559	      0.13993677	      2.51608573	     -0.51264360	      1.06706858	      0.30822649	     13.81277132	      2.81332207	     -1.86625996	    -20.90438504	     10.79319382	     -4.88559780	      2.97749575	     20.40344945	     -5.16109449	     -5.64712389	    -71.84772033	      7.08350082	      2.91256200	      1.08562727	     -9.99692303	      3.62406914	      1.19040333
      0.57900000	     -1.34925493	      0.25378291	      2.44782134	     -0.50768064	      1.06820582	      0.30840299	     13.28334011	      2.71973055	     -1.81186574	    -20.49422247	     10.86007609	     -4.78858461	      2.97563163	     20.83727192	     -5.04456144	     -5.78942873	    -71.36700569	      7.33630662	      3.17307896	      1.08648156	    -10.07402470	      3.48268404	      1.36080033
      0.58316667	     -1.31719321	      0.38721729	      2.35811543	     -0.50271546	      1.06932625	      0.30859008	     12.75697913	      2.60535385	     -1.74377569	    -20.09566888	     10.91704636	     -4.68820553	      2.97498868	     21.24065580	     -4.90860354	     -5.95586116	    -70.81614145	      7.58257828	      3.45140068	      1.09172723	    -10.15186312	      3.30700791	      1.50777191
      0.58733333	     -1.27751959	      0.49658445	      2.26116555	     -0.49776626	      1.07040036	      0.30877789	     12.22189942	      2.51800276	     -1.66659171	    -19.68707365	     10.97530638	     -4.59334464	      2.97509309	     21.62761529	     -4.80411889	     -6.12540028	    -70.22700334	      7.83301063	      3.76816523	      1.10070404	    -10.24513603	      3.17487389	      1.68295063
      0.59150000	     -1.23197747	      0.59641606	      2.15405857	     -0.49281982	      1.07143900	      0.30897104	     11.67934664	      2.44222627	     -1.57389977	    -19.27141636	     11.04492294	     -4.51178632	      2.97552029	     21.99287395	     -4.71532639	     -6.30812823	    -69.58900082	      8.07679597	      4.08865690	      1.11431672	    -10.34464316	      3.03545937	      1.93419969
      0.59566667	     -1.18748410	      0.71446350	      2.03299867	     -0.48787670	      1.07242737	      0.30917079	     11.14860344	      2.34455183	     -1.48084396	    -18.87693678	     11.11024149	     -4.41724155	      2.97743703	     22.33774307	     -4.60933668	     -6.51129013	    -68.89301113	      8.31169201	      4.41332723	      1.13041057	    -10.43885435	      2.88067874	      2.11834465
      0.59983333	     -1.18616031	      0.82927644	      1.89979401	     -0.48293451	      1.07329583	      0.30936464	     10.67519961	      2.24717355	     -1.37637502	    -18.50052041	     11.14917684	     -4.32214833	      2.97900874	     22.71381009	     -4.50554958	     -6.72336001	    -68.14766196	      8.53864611	      4.73753467	      1.14464227	    -10.48019697	      2.73982795	      2.25096441
      0.60400000	     -1.11802288	      0.90994197	      1.76970637	     -0.47800811	      1.07420925	      0.30956033	     10.11673468	      2.18969243	     -1.26878659	    -18.09060707	     11.22368364	     -4.24564406	      2.98196999	     23.00957629	     -4.44791032	     -6.93334012	    -67.36820325	      8.77424594	      5.07379319	      1.16645689	    -10.60739303	      2.62061995	      2.51255923
      0.60816667	     -1.09159062	      1.00302124	      1.62426543	     -0.47308721	      1.07500464	      0.30976112	      9.61885081	      2.11550802	     -1.14713339	    -17.71059506	     11.27936143	     -4.16357947	      2.98482470	     23.33115028	     -4.37511559	     -7.15655446	    -66.53682786	      8.98922519	      5.38604143	      1.18931408	    -10.68500440	      2.49369536	      2.72478449
      0.61233333	     -1.09593159	      1.10000381	      1.47089838	     -0.46815100	      1.07569297	      0.30995314	      9.16531915	      2.03247350	     -1.03253977	    -17.35337603	     11.32889128	     -4.07460530	      2.98720337	     23.66746039	     -4.29710221	     -7.38861021	    -65.65379651	      9.18440463	      5.66837431	      1.20410675	    -10.70974603	      2.37099920	      2.84857000
      0.61650000	     -1.04297448	      1.17237828	      1.32132108	     -0.46323444	      1.07642398	      0.31015096	      8.63894803	      1.97853697	     -0.90959964	    -16.96799641	     11.41199110	     -4.00694219	      2.99077251	     23.93094083	     -4.25141585	     -7.61665015	    -64.73388218	      9.38519673	      5.95958510	      1.22698341	    -10.81671859	      2.25895304	      3.11768248
      0.62066667	     -1.04128480	      1.23859296	      1.16570748	     -0.45831403	      1.07699847	      0.31033679	      8.18154903	      1.92697404	     -0.78320400	    -16.61005411	     11.47705186	     -3.93531546	      2.99352734	     24.23700381	     -4.20812221	     -7.84402276	    -63.77455705	      9.56505411	      6.21437029	      1.24875859	    -10.85667473	      2.16172385	      3.32895031
      0.62483333	     -1.05268068	      1.32092577	      0.99999608	     -0.45339521	      1.07750881	      0.31052201	      7.75131893	      1.85400284	     -0.65674295	    -16.27771226	     11.53606444	     -3.84888666	      2.99559135	     24.53407609	     -4.14569140	     -8.08011046	    -62.75670828	      9.71759930	      6.43029603	      1.26277272	    -10.87751876	      2.05758054	      3.46689445
      0.62900000	     -1.01953779	      1.36845497	      0.84800720	     -0.44848545	      1.07801946	      0.31069334	      7.26153840	      1.81891823	     -0.53714045	    -15.91980527	     11.62925058	     -3.78162706	      2.99693874	     24.77754042	     -4.12075230	     -8.29955556	    -61.71415072	      9.86770900	      6.63456612	      1.28208918	    -10.95545449	      1.97608963	      3.71614597
      0.63316667	     -1.02962523	      1.41790944	      0.69057629	     -0.44356701	      1.07840726	      0.31085434	      6.82871872	      1.77846907	     -0.40694384	    -15.58244364	     11.70376529	     -3.71543603	      2.99682193	     25.04942349	     -4.08780814	     -8.51451999	    -60.62336517	      9.99088678	      6.79442217	      1.30147873	    -10.98007510	      1.89875526	      3.92867667
      0.63733333	     -1.05965398	      1.46360394	      0.53171230	     -0.43865815	      1.07869494	      0.31100590	      6.43103833	      1.73779417	     -0.28987088	    -15.27125520	     11.77364120	     -3.63546224	      2.99718805	     25.32837775	     -4.05620171	     -8.72609971	    -59.49233871	     10.09119447	      6.92398563	      1.31173280	    -10.97547762	      1.83601338	      4.04725817
      0.64150000	     -1.09301521	      1.49868579	      0.38004130	     -0.43373656	      1.07891350	      0.31114587	      6.03505407	      1.70745064	     -0.17204740	    -14.95862417	     11.86526742	     -3.56330283	      2.99733362	     25.59695641	     -4.03178128	     -8.92442960	    -58.32342314	     10.17137648	      7.02560097	      1.32134012	    -10.96960273	      1.78118712	      4.20817085
      0.64566667	     -1.09140992	      1.51972086	      0.23740771	     -0.42883029	      1.07912377	      0.31127098	      5.60017712	      1.69053460	     -0.06469949	    -14.64292431	     11.98097171	     -3.49938527	      2.99418831	     25.81583660	     -4.01617910	     -9.10413781	    -57.11989472	     10.23241264	      7.08494923	      1.33933601	    -11.00798698	      1.73188946	      4.47464456
      0.64983333	     -1.14843125	      1.53110561	      0.09445358	     -0.42390808	      1.07917783	      0.31138344	      5.24127746	      1.68123607	      0.04381918	    -14.35462178	     12.06679812	     -3.43107698	      2.99261244	     26.08276904	     -4.00716774	     -9.27420368	    -55.87798415	     10.26759312	      7.13197651	      1.34767506	    -10.96926148	      1.71031052	      4.58088313
      0.65400000	     -1.19823090	      1.54016144	     -0.04309269	     -0.41898605	      1.07919862	      0.31148276	      4.87433025	      1.67279854	      0.15031075	    -14.06553119	     12.17187540	     -3.37092501	      2.99021151	     26.32395277	     -3.99278707	     -9.42984225	    -54.59185658	     10.27400689	      7.14042098	      1.35593806	    -10.93777145	      1.68995153	      4.72677885
      0.65816667	     -1.23346959	      1.52923240	     -0.16591345	     -0.41406914	      1.07917353	      0.31155367	      4.49060502	      1.68373811	      0.24412362	    -13.77691550	     12.28036856	     -3.31327200	      2.98640724	     26.54007419	     -3.99166637	     -9.56058201	    -53.27718539	     10.26133816	      7.12324738	      1.36481824	    -10.92800749	      1.68985352	      4.87588672
      0.66233333	     -1.28194506	      1.50959516	     -0.28252228	     -0.40915148	      1.07906416	      0.31160788	      4.12588724	      1.70227565	      0.33394391	    -13.49887109	     12.39390364	     -3.26069670	      2.98179007	     26.75620384	     -3.99296528	     -9.67440658	    -51.92716852	     10.22647058	      7.08520613	      1.37398828	    -10.90130930	      1.70250233	      5.01626416
      0.66650000	     -1.34159653	      1.48924255	     -0.39233323	     -0.40421788	      1.07889241	      0.31164853	      3.77549224	      1.71974318	      0.41607160	    -13.22867608	     12.51426003	     -3.20602205	      2.97621158	     26.96520916	     -3.98604538	     -9.76865855	    -50.53459967	     10.16490737	      7.01912845	      1.38365094	    -10.86108128	      1.72006246	      5.14696774
      0.67066667	     -1.39609217	      1.45269295	     -0.48683116	     -0.39928582	      1.07866426	      0.31165563	      3.41620358	      1.75266973	      0.48804799	    -12.95218376	     12.63838841	     -3.14793522	      2.97055744	     27.15788251	     -3.98797058	     -9.84333080	    -49.11435983	     10.08838358	      6.95377641	      1.39224207	    -10.83365482	      1.76122710	      5.25324810
      0.67483333	     -1.44775763	      1.40109435	     -0.57372103	     -0.39436170	      1.07839111	      0.31165133	      3.06088010	      1.80128610	      0.55274143	    -12.69435332	     12.76186616	     -3.10107175	      2.96299311	     27.33200288	     -3.99498714	     -9.88378605	    -47.65817777	      9.98816680	      6.86340420	      1.40248530	    -10.80181871	      1.81525208	      5.35770242
      0.67900000	     -1.52339989	      1.34189737	     -0.64752325	     -0.38941277	      1.07800630	      0.31162151	      2.73080516	      1.85677322	      0.60593624	    -12.44070452	     12.89678318	     -3.05310158	      2.95450440	     27.51891628	     -4.00152603	     -9.90326300	    -46.17621485	      9.87751103	      6.76818615	      1.41373744	    -10.74021906	      1.88071044	      5.44634672
      0.68316667	     -1.59080947	      1.26262771	     -0.70893142	     -0.38447098	      1.07758766	      0.31156867	      2.39267208	      1.93343184	      0.65338903	    -12.19077990	     13.02847411	     -3.00971930	      2.94440223	     27.68480399	     -4.01927440	     -9.89239888	    -44.66731088	      9.75117076	      6.67303301	      1.42614669	    -10.68708366	      1.96921558	      5.51921751
      0.68733333	     -1.66034973	      1.18294846	     -0.75771501	     -0.37951420	      1.07712164	      0.31148523	      2.05552216	      2.00855455	      0.68896704	    -11.94346135	     13.16558942	     -2.96823983	      2.93278060	     27.83417413	     -4.02518788	     -9.85597627	    -43.12270597	      9.61209765	      6.57426315	      1.44018641	    -10.63004009	      2.06178596	      5.57726338
